<svg width="481" height="202" viewBox="0 0 481 202" fill="none" xmlns="http://www.w3.org/2000/svg">
<path d="M112.432 112.398C113.487 114.536 113.644 116.837 112.846 119.19L108.174 132.97C107.376 135.322 105.852 137.054 103.714 138.109L72.3231 153.603C70.1853 154.659 67.8839 154.815 65.5312 154.017L51.2471 149.174L55.7499 135.618L67.0091 139.435C67.6813 139.663 68.2424 139.666 68.9175 139.333L94.458 126.727C95.133 126.394 95.472 125.946 95.6999 125.274L97.9221 118.72C98.15 118.048 98.0974 117.374 97.8197 116.812L94.2655 109.611C93.7101 108.486 92.1977 107.973 91.017 108.416L47.9591 122.952C43.2934 124.556 37.9743 122.284 35.864 118.008L28.589 103.269C27.5338 101.131 27.3773 98.8297 28.175 96.477L32.8472 82.6971C33.6449 80.3444 35.1689 78.6127 37.3067 77.5576L68.6979 62.0634C70.8356 61.0082 73.1371 60.8517 75.4897 61.6494L89.7738 66.4926L85.2711 80.049L74.0119 76.2314C73.3397 76.0035 72.7785 76.0006 72.1035 76.3338L46.563 88.9402C45.8879 89.2734 45.5489 89.7206 45.321 90.3927L43.0988 96.9466C42.8709 97.6188 42.9236 98.2924 43.2012 98.855L46.7555 106.056C47.3108 107.181 48.7107 107.749 49.8914 107.306L93.0618 92.7146C97.7275 91.1113 103.047 93.3833 105.157 97.6588L112.432 112.398Z" fill="white"/>
<path d="M193.577 99.3436L185.182 112.299C183.831 114.384 181.929 115.688 179.597 116.186L152.97 121.873C150.639 122.371 148.37 121.958 146.285 120.607L134.074 112.694C131.989 111.343 130.685 109.441 130.187 107.109L120.726 62.813C120.228 60.4816 120.641 58.2121 121.992 56.1274L129.905 43.9165C131.256 41.8317 133.158 40.5272 135.49 40.0293L162.117 34.3421C164.448 33.8442 166.717 34.2576 168.802 35.6085L181.758 44.0038L173.915 55.943L163.789 49.3812C163.193 48.9952 162.65 48.8546 161.914 49.0119L141.668 53.3362C140.931 53.4935 140.493 53.8437 140.107 54.4394L136.344 60.247C135.958 60.8426 135.843 61.5086 135.974 62.1221L144.387 101.51C144.518 102.124 144.895 102.685 145.49 103.071L151.298 106.834C151.894 107.22 152.437 107.361 153.173 107.204L173.419 102.879C174.156 102.722 174.594 102.372 174.98 101.776L181.542 91.6501L193.577 99.3436Z" fill="white"/>
<path d="M278.973 92.2184C278.961 94.6024 278.072 96.7309 276.307 98.4786L265.966 108.715C264.2 110.463 262.063 111.33 259.679 111.318L226.931 111.152C224.547 111.139 222.418 110.25 220.671 108.485L210.434 98.1439C208.687 96.3784 207.819 94.2409 207.831 91.857L208.062 46.562C208.074 44.1781 208.963 42.0495 210.728 40.3019L221.069 30.0655C222.835 28.3179 224.972 27.4504 227.356 27.4625L260.104 27.6289C262.488 27.641 264.616 28.5302 266.364 30.2957L276.6 40.6366C278.348 42.4021 279.216 44.5395 279.203 46.9235L278.973 92.2184ZM263.93 89.6325L264.134 49.3564C264.137 48.7291 263.89 48.1004 263.39 47.596L258.522 42.6778C258.023 42.1733 257.522 41.9198 256.769 41.916L230.546 41.7828C229.793 41.7789 229.29 42.0273 228.785 42.5267L223.867 47.3952C223.363 47.8945 223.108 48.5206 223.105 49.1479L222.901 89.424C222.897 90.0514 223.145 90.68 223.645 91.1845L228.513 96.1027C229.012 96.6071 229.513 96.8606 230.266 96.8644L256.489 96.9977C257.242 97.0015 257.745 96.7531 258.25 96.2538L263.168 91.3853C263.672 90.886 263.926 90.2599 263.93 89.6325Z" fill="white"/>
<path d="M365.656 109.701C365.103 112.02 363.754 113.891 361.638 115.193L349.243 122.813C347.127 124.115 344.848 124.474 342.529 123.921L317.997 118.07C315.678 117.517 313.807 116.167 312.506 114.051L304.885 101.656C303.584 99.5398 303.225 97.2612 303.778 94.9422L318.741 32.2092L333.387 35.7026L319.006 95.9946C318.86 96.6048 318.959 97.2733 319.331 97.8779L322.955 103.773C323.327 104.378 323.757 104.738 324.489 104.913L342.674 109.251C343.407 109.425 343.953 109.298 344.558 108.926L350.453 105.301C351.058 104.929 351.447 104.377 351.593 103.767L365.974 43.4752L380.62 46.9685L365.656 109.701Z" fill="white"/>
<path d="M458.501 97.9693L436.918 86.9886L405.455 148.831L392.035 142.004L423.498 80.1612L401.914 69.1805L408.4 56.4317L464.987 85.2205L458.501 97.9693Z" fill="white"/>
</svg>
